<svg version="1.1" xmlns="http://www.w3.org/2000/svg" viewBox="0, 0, 400,400">
    <g>
        <path d="M171.351 67.169 C 166.100 70.211,161.802 72.746,161.801 72.803 C 161.801 72.860,164.992 74.749,168.893 77.001 C 175.403 80.760,175.949 81.116,175.543 81.338 C 171.877 83.339,104.558 122.379,104.556 122.505 C 104.550 122.834,118.474 130.798,118.932 130.728 C 119.508 130.640,209.793 78.547,209.736 78.336 C 209.695 78.187,181.565 61.845,181.100 61.700 C 180.990 61.666,176.603 64.127,171.351 67.169 M197.610 101.709 C 183.260 110.009,171.440 116.880,171.342 116.978 C 171.239 117.081,174.123 118.845,178.232 121.192 C 182.760 123.778,185.290 125.333,185.271 125.521 C 185.249 125.746,185.305 125.762,185.514 125.588 C 185.747 125.395,228.753 149.913,228.546 150.121 C 228.521 150.146,224.282 152.604,219.126 155.583 L 209.752 160.999 188.726 148.871 C 177.162 142.200,167.430 136.547,167.100 136.309 C 165.135 134.889,152.131 128.148,151.688 128.319 C 150.603 128.739,133.214 138.918,133.270 139.100 C 133.428 139.614,204.895 180.621,205.298 180.428 C 206.556 179.828,295.689 128.234,295.741 128.076 C 295.816 127.853,224.713 86.755,224.109 86.673 C 223.861 86.639,213.449 92.546,197.610 101.709 M244.456 120.600 C 257.497 128.121,261.909 130.757,261.734 130.922 C 260.792 131.813,248.069 138.829,247.678 138.673 C 246.990 138.400,205.400 114.331,205.404 114.209 C 205.406 114.149,208.534 112.298,212.354 110.095 L 219.300 106.090 223.122 108.295 C 225.224 109.508,234.824 115.045,244.456 120.600 M104.009 188.135 L 104.018 233.900 146.834 258.600 C 170.383 272.185,192.004 284.656,194.880 286.314 L 200.110 289.329 209.705 283.787 L 219.300 278.245 219.400 258.988 L 219.500 239.731 257.700 217.671 C 278.710 205.537,295.968 195.585,296.052 195.554 C 296.135 195.524,296.180 191.110,296.152 185.745 L 296.100 175.992 257.813 198.096 C 236.755 210.253,219.496 220.200,219.460 220.200 C 219.424 220.200,219.419 217.035,219.447 213.166 L 219.500 206.131 257.700 184.071 C 278.710 171.937,295.968 161.985,296.052 161.954 C 296.135 161.924,296.180 157.510,296.152 152.145 L 296.100 142.392 248.050 170.133 L 200.000 197.873 200.000 233.737 C 200.000 253.462,199.939 269.600,199.864 269.600 C 199.790 269.600,182.555 259.685,161.564 247.566 L 123.400 225.533 123.395 189.516 L 123.391 153.500 115.062 148.700 C 110.481 146.060,106.118 143.556,105.367 143.135 L 104.000 142.369 104.009 188.135 " fill="#FFFFFF"></path>
    </g>
</svg>
